<?xml version="1.0" encoding="UTF-8"?>
<svg id="Layer_1" data-name="Layer 1" xmlns="http://www.w3.org/2000/svg" xmlns:xlink="http://www.w3.org/1999/xlink" viewBox="0 0 381.38 123.19">
  <defs>
    <style>
      .cls-1 {
        fill: url(#New_Gradient_Swatch_1);
        filter: url(#drop-shadow-1);
      }

      .cls-2 {
        fill: #757575;
      }

      .cls-3 {
        fill: #f16624;
      }

      .cls-4 {
        fill: #443190;
      }
    </style>
    <linearGradient id="New_Gradient_Swatch_1" data-name="New Gradient Swatch 1" x1="9.48" y1="48.7" x2="25.16" y2="48.7" gradientUnits="userSpaceOnUse">
      <stop offset="0" stop-color="#a5a7a9"/>
      <stop offset=".08" stop-color="#c0c1c3"/>
      <stop offset=".18" stop-color="#d7d8d9"/>
      <stop offset=".29" stop-color="#e9e9ea"/>
      <stop offset=".42" stop-color="#f5f5f6"/>
      <stop offset=".59" stop-color="#fcfcfd"/>
      <stop offset="1" stop-color="#fff"/>
    </linearGradient>
    <filter id="drop-shadow-1" x="-.1" y="14.97" width="47.52" height="67.44" filterUnits="userSpaceOnUse">
      <feOffset dx="6.32" dy="0"/>
      <feGaussianBlur result="blur" stdDeviation="5.26"/>
      <feFlood flood-color="#211e1f" flood-opacity=".25"/>
      <feComposite in2="blur" operator="in"/>
      <feComposite in="SourceGraphic"/>
    </filter>
  </defs>
  <g>
    <path class="cls-3" d="M86.58,48.29c0-57.59-50.46-36.9-77.1-17.18v35.32c26.64,19.97,77.09,39.47,77.1-18.13h0s0,0,0,0Z"/>
    <path class="cls-1" d="M9.48,30.98v35.45c9.01-3.53,15.68-14.45,15.68-17.58h0c0-3.71-5.01-13.01-15.68-17.87Z"/>
  </g>
  <g>
    <path class="cls-4" d="M162.55,21.89v41.67c0,17.29-8.83,25.94-26.49,25.94-4.72,0-9.2-.6-13.43-1.79-4.23-1.2-7.73-2.93-10.49-5.2l5.15-8.65c2.15,1.78,4.86,3.2,8.14,4.28,3.28,1.07,6.61,1.61,9.98,1.61,5.4,0,9.35-1.23,11.87-3.68,2.51-2.45,3.77-6.19,3.77-11.22v-2.58c-1.96,2.15-4.35,3.77-7.18,4.88-2.82,1.1-5.92,1.66-9.29,1.66-4.66,0-8.88-1-12.65-2.99-3.77-1.99-6.75-4.8-8.92-8.42-2.18-3.62-3.27-7.76-3.27-12.42s1.09-8.78,3.27-12.37c2.18-3.59,5.15-6.36,8.92-8.33,3.77-1.96,7.99-2.94,12.65-2.94,3.56,0,6.79.58,9.71,1.75,2.91,1.17,5.35,2.94,7.31,5.34v-6.53h10.95ZM147.05,55.15c2.79-2.61,4.19-5.99,4.19-10.17s-1.4-7.45-4.19-10.03c-2.79-2.58-6.36-3.86-10.72-3.86s-8.02,1.29-10.81,3.86c-2.79,2.58-4.19,5.92-4.19,10.03s1.39,7.56,4.19,10.17c2.79,2.61,6.39,3.91,10.81,3.91s7.93-1.3,10.72-3.91Z"/>
    <path class="cls-4" d="M178.18,11.82c-1.41-1.32-2.12-2.96-2.12-4.92s.7-3.6,2.12-4.92c1.41-1.32,3.16-1.98,5.24-1.98s3.83.63,5.24,1.89c1.41,1.26,2.12,2.84,2.12,4.74,0,2.02-.69,3.73-2.07,5.11-1.38,1.38-3.14,2.07-5.29,2.07s-3.83-.66-5.24-1.98ZM177.63,21.89h11.5v49.12h-11.5V21.89Z"/>
    <path class="cls-4" d="M215.44,19.32v2.94h13.52v9.2h-13.25v39.56h-11.5V19.13c0-5.21,1.53-9.35,4.6-12.42,3.07-3.07,7.42-4.6,13.06-4.6,4.35,0,7.79.89,10.3,2.67l-3.22,8.65c-1.84-1.35-3.93-2.02-6.26-2.02-4.85,0-7.27,2.64-7.27,7.91Z"/>
    <path class="cls-4" d="M264.28,68.35c-1.35,1.1-2.99,1.93-4.92,2.48-1.93.55-3.97.83-6.12.83-5.4,0-9.57-1.41-12.51-4.23-2.94-2.82-4.42-6.93-4.42-12.33V11.04h11.5v11.22h13.15v9.2h-13.15v23.37c0,2.39.6,4.22,1.79,5.47,1.2,1.26,2.87,1.89,5.01,1.89,2.58,0,4.72-.67,6.44-2.02l3.22,8.19Z"/>
    <path class="cls-4" d="M318.92,22.63v42.5c0,8.22-1.87,14.3-5.61,18.26-3.74,3.96-9.38,5.93-16.93,5.93-4.23,0-8.23-.66-12-1.98-3.77-1.32-6.82-3.14-9.15-5.47l3.31-4.97c2.08,2.08,4.66,3.71,7.73,4.87,3.07,1.16,6.35,1.75,9.84,1.75,5.58,0,9.69-1.43,12.33-4.28,2.64-2.85,3.96-7.28,3.96-13.29v-5.61c-1.72,2.82-4.06,5-7.04,6.53-2.98,1.53-6.33,2.3-10.07,2.3-6.32,0-11.3-1.76-14.95-5.29-3.65-3.53-5.47-8.69-5.47-15.5v-25.76h6.53v25.11c0,5.09,1.26,8.95,3.77,11.59,2.51,2.64,6.1,3.95,10.76,3.95,5.09,0,9.11-1.55,12.05-4.64,2.94-3.1,4.42-7.41,4.42-12.93v-23.09h6.53Z"/>
    <path class="cls-4" d="M381.38,22.63v48.39h-6.26v-9.57c-1.96,3.25-4.55,5.73-7.77,7.45-3.22,1.72-6.85,2.57-10.9,2.57-4.54,0-8.65-1.04-12.33-3.13-3.68-2.08-6.56-5-8.65-8.74-2.09-3.74-3.13-8-3.13-12.79s1.04-9.04,3.13-12.79c2.08-3.74,4.97-6.64,8.65-8.69,3.68-2.05,7.79-3.08,12.33-3.08,3.92,0,7.47.81,10.62,2.44,3.16,1.63,5.75,4,7.77,7.13v-9.2h6.53ZM366.16,63.33c2.73-1.56,4.88-3.79,6.44-6.67,1.56-2.88,2.35-6.16,2.35-9.84s-.78-6.96-2.35-9.84c-1.56-2.88-3.71-5.11-6.44-6.67-2.73-1.56-5.78-2.35-9.15-2.35s-6.52.78-9.24,2.35c-2.73,1.56-4.88,3.79-6.44,6.67-1.56,2.88-2.35,6.16-2.35,9.84s.78,6.96,2.35,9.84c1.56,2.88,3.71,5.11,6.44,6.67,2.73,1.56,5.81,2.35,9.24,2.35s6.42-.78,9.15-2.35Z"/>
  </g>
  <g>
    <path class="cls-2" d="M125.69,101.2v3.22h-4.12v13.71h-3.33v-13.71h-3.96v-3.22h11.41Z"/>
    <path class="cls-2" d="M137.75,108.45c.64.57.96,1.29.98,2.16v7.52h-3.22v-6.33c-.05-.98-.54-1.47-1.47-1.47-.74,0-1.33.34-1.77,1.04-.45.69-.67,1.58-.67,2.67v4.09h-3.22v-18.15h3.15v9.68c.37-.64.88-1.15,1.53-1.52.65-.37,1.42-.55,2.31-.55.95,0,1.74.28,2.38.85Z"/>
    <path class="cls-2" d="M149.06,115l1.43,2.39c-.55.31-1.13.55-1.75.74s-1.2.28-1.75.28c-1.2,0-2.23-.23-3.09-.68-.87-.45-1.52-1.09-1.97-1.91-.45-.82-.67-1.76-.67-2.82,0-.98.26-1.89.77-2.71s1.21-1.48,2.1-1.97c.89-.48,1.86-.72,2.92-.72,1.44,0,2.63.42,3.55,1.27.93.84,1.53,2.05,1.81,3.61l-7.36,2.35c.49.57,1.16.85,2,.85.64,0,1.31-.22,2-.67ZM145.08,110.84c-.43.49-.64,1.15-.64,1.98v.21l4.42-1.49c-.32-.95-1-1.43-2.05-1.43-.72,0-1.3.25-1.72.74Z"/>
    <path class="cls-2" d="M166.4,103.66v4.37h2.44v2.51h-2.44v7.59h-3.22v-7.59h-1.56v-2.51h1.56v-4.37h3.22Z"/>
    <path class="cls-2" d="M180.67,108.45c.64.57.96,1.29.98,2.16v7.52h-3.22v-6.33c-.05-.98-.54-1.47-1.47-1.47-.74,0-1.33.34-1.77,1.04-.45.69-.67,1.58-.67,2.67v4.09h-3.22v-18.15h3.15v9.68c.37-.64.88-1.15,1.53-1.52.65-.37,1.42-.55,2.31-.55.95,0,1.74.28,2.38.85Z"/>
    <path class="cls-2" d="M184.9,110.22c.48-.81,1.17-1.45,2.05-1.92s1.88-.7,3-.7,2.1.23,2.96.7,1.51,1.11,1.97,1.92c.46.81.69,1.73.69,2.76s-.23,1.96-.69,2.78-1.12,1.48-1.97,1.94c-.85.47-1.85.7-3,.7s-2.11-.22-2.98-.66c-.87-.44-1.54-1.06-2.02-1.87-.48-.81-.72-1.78-.72-2.9,0-1.03.24-1.95.72-2.76ZM188.11,114.99c.46.53,1.04.79,1.75.79s1.33-.26,1.78-.78c.45-.52.68-1.19.68-2s-.23-1.48-.68-2c-.45-.52-1.05-.78-1.78-.78s-1.29.26-1.75.79c-.46.53-.69,1.19-.69,1.99s.23,1.46.69,1.99Z"/>
    <path class="cls-2" d="M208.21,108.08v10.05h-2.92l-.23-1.61c-.35.64-.85,1.15-1.48,1.53-.64.38-1.38.56-2.24.56-.92,0-1.69-.28-2.3-.85s-.93-1.29-.94-2.16v-7.52h3.22v6.33c.05.98.5,1.47,1.36,1.47.71,0,1.27-.34,1.69-1.04.42-.69.63-1.58.63-2.67v-4.09h3.22Z"/>
    <path class="cls-2" d="M222.77,108.08v10.05c0,.95-.27,1.81-.82,2.59-.54.77-1.28,1.38-2.21,1.82-.93.44-1.94.66-3.03.66-.83,0-1.55-.1-2.17-.3s-1.12-.42-1.5-.67-.82-.58-1.35-1.01l1.89-2.21c.46.43.92.77,1.37,1.01.45.25,1.02.37,1.71.37.81,0,1.5-.2,2.05-.61.55-.41.83-.97.83-1.69v-1.43c-.31.52-.78.94-1.41,1.26-.64.32-1.42.48-2.33.48s-1.74-.23-2.52-.7c-.77-.47-1.39-1.11-1.85-1.93-.46-.82-.69-1.73-.69-2.73s.24-1.94.72-2.78c.48-.84,1.12-1.5,1.91-1.98.79-.48,1.62-.71,2.5-.71.83,0,1.56.12,2.21.36.64.24,1.13.55,1.47.93l.25-.78h2.97ZM219.55,114.26v-2.46c-.21-.49-.57-.88-1.07-1.17s-1.07-.44-1.71-.44c-.78,0-1.44.26-1.98.78-.54.52-.8,1.18-.8,1.98s.27,1.47.8,2.01c.54.54,1.2.82,1.98.82,1.29,0,2.21-.51,2.78-1.52Z"/>
    <path class="cls-2" d="M235.45,108.45c.64.57.96,1.29.98,2.16v7.52h-3.22v-6.33c-.05-.98-.54-1.47-1.47-1.47-.74,0-1.33.34-1.77,1.04-.45.69-.67,1.58-.67,2.67v4.09h-3.22v-18.15h3.15v9.68c.37-.64.88-1.15,1.53-1.52.65-.37,1.42-.55,2.31-.55.95,0,1.74.28,2.38.85Z"/>
    <path class="cls-2" d="M243.91,103.66v4.37h2.44v2.51h-2.44v7.59h-3.22v-7.59h-1.56v-2.51h1.56v-4.37h3.22Z"/>
    <path class="cls-2" d="M260.44,103.66v4.37h2.44v2.51h-2.44v7.59h-3.22v-7.59h-1.56v-2.51h1.56v-4.37h3.22Z"/>
    <path class="cls-2" d="M274.71,108.45c.64.57.96,1.29.98,2.16v7.52h-3.22v-6.33c-.05-.98-.54-1.47-1.47-1.47-.74,0-1.33.34-1.77,1.04-.45.69-.67,1.58-.67,2.67v4.09h-3.22v-18.15h3.15v9.68c.37-.64.88-1.15,1.53-1.52.65-.37,1.42-.55,2.31-.55.95,0,1.74.28,2.38.85Z"/>
    <path class="cls-2" d="M289.81,108.08v10.05h-3.22v-1.24c-.97,1.01-2.09,1.52-3.36,1.52-1.49,0-2.69-.45-3.62-1.33-.93-.89-1.39-2.21-1.39-3.96,0-1.1.23-2.07.68-2.91.45-.83,1.05-1.48,1.81-1.94.75-.46,1.56-.69,2.42-.69s1.59.13,2.12.4.98.65,1.38,1.14l.21-1.04h2.99ZM286.59,114.26v-2.46c-.18-.49-.5-.88-.96-1.17s-.99-.44-1.6-.44c-.71,0-1.31.26-1.81.78-.5.52-.75,1.18-.75,1.98,0,.52.12,1,.37,1.44.25.44.57.78.98,1.02s.85.37,1.32.37c1.12,0,1.93-.51,2.44-1.52Z"/>
    <path class="cls-2" d="M297.29,103.66v4.37h2.44v2.51h-2.44v7.59h-3.22v-7.59h-1.56v-2.51h1.56v-4.37h3.22Z"/>
    <path class="cls-2" d="M316.53,118.08c-.67.21-1.32.32-1.97.32-1.75,0-3.13-.47-4.15-1.42-1.02-.94-1.53-2.24-1.53-3.9,0-1.07.25-2.01.75-2.82s1.15-1.42,1.97-1.84,1.69-.63,2.62-.63c1.67,0,3.03.45,4.07,1.33l-1.56,2.07c-.66-.52-1.4-.78-2.21-.78-.67,0-1.25.25-1.71.76-.47.51-.7,1.14-.7,1.91s.25,1.41.76,1.92c.51.51,1.17.77,1.98.77.71,0,1.29-.19,1.75-.58l1.61,2.02c-.45.35-1,.64-1.67.85Z"/>
    <path class="cls-2" d="M320.62,110.22c.48-.81,1.17-1.45,2.05-1.92s1.88-.7,3-.7,2.1.23,2.96.7,1.51,1.11,1.97,1.92c.46.81.69,1.73.69,2.76s-.23,1.96-.69,2.78-1.12,1.48-1.97,1.94c-.85.47-1.85.7-3,.7s-2.11-.22-2.98-.66c-.87-.44-1.54-1.06-2.02-1.87-.48-.81-.72-1.78-.72-2.9,0-1.03.24-1.95.72-2.76ZM323.83,114.99c.46.53,1.04.79,1.75.79s1.33-.26,1.78-.78c.45-.52.68-1.19.68-2s-.23-1.48-.68-2c-.45-.52-1.05-.78-1.78-.78s-1.29.26-1.75.79c-.46.53-.69,1.19-.69,1.99s.23,1.46.69,1.99Z"/>
    <path class="cls-2" d="M343.93,108.08v10.05h-2.92l-.23-1.61c-.35.64-.85,1.15-1.48,1.53-.64.38-1.38.56-2.24.56-.92,0-1.69-.28-2.3-.85s-.93-1.29-.94-2.16v-7.52h3.22v6.33c.05.98.5,1.47,1.36,1.47.71,0,1.27-.34,1.69-1.04.42-.69.63-1.58.63-2.67v-4.09h3.22Z"/>
    <path class="cls-2" d="M356.61,108.45c.64.57.96,1.29.98,2.16v7.52h-3.22v-6.33c-.05-.98-.54-1.47-1.47-1.47-.74,0-1.33.34-1.77,1.04-.45.69-.67,1.58-.67,2.67v4.09h-3.22v-10.05h2.92l.23,1.61c.37-.66.88-1.17,1.53-1.54.65-.37,1.42-.55,2.31-.55.95,0,1.74.28,2.38.85Z"/>
    <path class="cls-2" d="M365.07,103.66v4.37h2.44v2.51h-2.44v7.59h-3.22v-7.59h-1.56v-2.51h1.56v-4.37h3.22Z"/>
    <path class="cls-2" d="M370.91,117.9c-.72-.29-1.32-.7-1.79-1.22l1.33-1.77c.89.83,1.73,1.24,2.51,1.24.41,0,.75-.07,1-.2.25-.13.38-.33.38-.59,0-.31-.15-.54-.44-.7-.29-.16-.62-.29-.98-.4-.36-.11-.6-.18-.72-.21-.87-.28-1.53-.69-1.96-1.23-.43-.54-.64-1.17-.64-1.87,0-.54.14-1.06.43-1.58.28-.51.72-.93,1.32-1.26.6-.33,1.34-.49,2.23-.49.83,0,1.53.08,2.12.25s1.14.44,1.68.83l-1.22,1.89c-.31-.25-.65-.45-1.02-.61s-.72-.24-1.02-.24c-.37,0-.67.08-.9.23-.23.15-.35.34-.35.55-.02.32.12.56.4.72.28.16.72.33,1.32.5.09.03.19.06.29.09.1.03.2.06.31.09,1.58.52,2.37,1.47,2.37,2.85,0,.64-.16,1.23-.48,1.77-.32.54-.81.97-1.46,1.3-.65.33-1.45.49-2.38.49-.83,0-1.6-.15-2.32-.44Z"/>
  </g>
</svg>